Coordinates
version=1
nRows=6
nColumns=36
inDegrees=yes

Units are S.I. units (second, meters, Newtons, ...)
If the header above contains a line with 'inDegrees', this indicates whether rotational values are in degrees (yes) or radians (no).

endheader
time	pelvis_tilt	pelvis_list	pelvis_rotation	pelvis_tx	pelvis_ty	pelvis_tz	hip_flexion_r	hip_adduction_r	hip_rotation_r	knee_angle_r	knee_angle_r_beta	ankle_angle_r	subtalar_angle_r	mtp_angle_r	hip_flexion_l	hip_adduction_l	hip_rotation_l	knee_angle_l	knee_angle_l_beta	ankle_angle_l	subtalar_angle_l	mtp_angle_l	lumbar_extension	lumbar_bending	lumbar_rotation	arm_flex_r	arm_add_r	arm_rot_r	elbow_flex_r	pro_sup_r	arm_flex_l	arm_add_l	arm_rot_l	elbow_flex_l	pro_sup_l
     44.25000000	      2.63865919	      5.89545046	   -176.88829803	      0.27893290	      0.94115987	      0.79257764	     21.28696905	     -0.64495979	      5.26377791	     80.70444166	      1.40855823	     -6.20373823	    -12.50301073	     -7.49999987	     25.42753754	     -3.19562809	      2.76833815	     32.46348779	      0.56659475	    -12.81842599	    -16.45195399	     -7.49999987	    -14.86978861	      6.65335464	     13.57179034	      7.75734020	    -20.22934837	      7.06886096	     25.77083119	     79.89437303	      8.46422247	     -5.03630869	     -4.50392585	     13.58056302	     92.62699947
     44.26666670	      2.21689939	      5.68774544	   -176.26039451	      0.28071844	      0.94660882	      0.79129057	     23.79705746	     -1.33498380	      4.09094299	     81.50006015	      1.42244439	     -8.75299855	    -14.76670726	     -7.49999987	     23.82989762	     -2.97094034	      2.85132435	     32.54021899	      0.56793396	     -9.43947861	    -16.87279267	     -7.49999987	    -15.18144505	      6.23229986	     12.71612184	      7.51022243	    -19.86343878	      6.93408773	     25.65520385	     77.74943675	      9.92271245	     -5.12367033	     -3.14664419	     14.73244232	     89.62152098
     44.28333330	      1.97546883	      5.31156542	   -175.75429063	      0.28187288	      0.95419949	      0.79023779	     26.22900605	     -1.93503281	      3.43041857	     80.32141129	      1.40187309	    -11.06899288	    -16.95388463	     -7.49999987	     22.28487355	     -2.67150523	      2.60501220	     32.43989151	      0.56618292	     -5.29257821	    -16.47604412	     -7.49999987	    -15.28558041	      5.56128388	     11.26601772	      7.91143753	    -19.15265927	      7.29757971	     24.88776516	     78.80640302	     11.06968536	     -5.83832634	     -0.19343320	     16.12411997	     90.55198863
     44.30000000	      1.65585494	      5.03780482	   -175.28541565	      0.28304902	      0.96322018	      0.78989063	     27.80460639	     -2.36775832	      3.07262324	     76.14801796	      1.32903363	    -12.99804662	    -18.81911972	     -7.49999987	     20.37963416	     -2.45304245	      2.52394538	     31.49162860	      0.54963261	     -1.81300234	    -15.03891986	     -7.49999987	    -15.58828538	      5.10296567	      9.77919948	      8.11730901	    -18.59761288	      7.44442867	     24.98930547	     78.22403612	     12.50681166	     -6.33301205	      0.91764116	     17.32562328	     89.30164377
     44.31666670	      1.75908107	      4.48004220	   -175.08570886	      0.28341894	      0.96799917	      0.79038020	     28.75016629	     -3.27433841	      3.12511524	     68.96270893	      1.20362633	    -14.50865416	    -20.14767718	     -7.49999987	     18.58455879	     -1.92309545	      2.37986173	     29.48630963	      0.51463319	      0.36422901	    -12.24548453	     -7.49999987	    -15.40245622	      4.32454588	      7.95162514	      8.71183098	    -17.68764816	      7.69826327	     24.36420746	     80.13906887	     13.79500314	     -7.29503238	      3.01097010	     18.59596571	     90.37083587
     44.33333330	      2.46934207	      3.65653256	   -175.05744562	      0.28240865	      0.96586622	      0.79249098	     29.55468501	     -4.87841815	      2.92615961	     60.52713996	      1.05639788	    -15.75726771	    -21.17312693	     -7.49999987	     17.32269482	     -0.86577765	      2.80495101	     26.95147478	      0.47039197	      0.78676978	     -9.82853376	     -7.49999987	    -14.73458394	      3.23612697	      6.33974295	      8.47901012	    -16.93331523	      7.56201983	     25.18991858	     79.44099087	     15.06227953	     -7.87023116	      3.09166790	     19.72088410	     89.15049403
